<?xml version="1.0" encoding="UTF-8" standalone="no"?> <svg viewBox="-131 0 512 512"  xmlns="http://www.w3.org/2000/svg"><path d="m250.777344 255.816406c0-44.523437-23.097656-83.730468-57.886719-106.152344v-108.078124c0-22.929688-18.589844-41.585938-41.4375-41.585938h-52.128906c-22.847657 0-41.4375 18.65625-41.4375 41.585938v108.078124c-34.789063 22.421876-57.886719 61.628907-57.886719 106.152344 0 44.527344 23.097656 83.734375 57.886719 106.152344v108.445312c0 22.929688 18.589843 41.585938 41.4375 41.585938h52.128906c22.847656 0 41.4375-18.65625 41.4375-41.585938v-108.445312c34.789063-22.417969 57.886719-61.625 57.886719-106.152344zm-151.453125-225.816406h52.128906c6.308594 0 11.4375 5.199219 11.4375 11.585938v32.816406h-75.003906v-32.816406c0-6.390626 5.132812-11.585938 11.4375-11.585938zm-11.4375 74.402344h75.003906v31.164062c-11.84375-3.742187-24.445313-5.761718-37.5-5.761718-13.058594 0-25.65625 2.019531-37.503906 5.761718zm-57.886719 151.414062c0-52.9375 42.792969-96.011718 95.390625-96.011718 52.59375 0 95.386719 43.074218 95.386719 96.011718 0 52.941406-42.792969 96.011719-95.386719 96.011719-52.597656 0-95.390625-43.070313-95.390625-96.011719zm121.453125 226.183594h-52.128906c-6.308594 0-11.4375-5.195312-11.4375-11.585938v-32.816406h75.003906v32.816406c0 6.390626-5.128906 11.585938-11.4375 11.585938zm11.4375-74.402344h-75.003906v-31.527344c11.847656 3.738282 24.445312 5.757813 37.503906 5.757813 13.054687 0 25.65625-2.015625 37.5-5.757813zm0 0"/><path d="m91.832031 312.886719c3.855469 0 7.707031-1.476563 10.636719-4.421875l33.558594-33.746094c2.792968-2.8125 4.363281-6.613281 4.363281-10.578125v-62.476563c0-8.28125-6.71875-15-15-15-8.285156 0-15 6.71875-15 15v56.285157l-29.195313 29.359375c-5.839843 5.875-5.8125 15.371094.0625 21.214844 2.925782 2.910156 6.75 4.363281 10.574219 4.363281zm0 0"/></svg>