<?xml version="1.0" encoding="UTF-8" standalone="no"?> <svg xmlns="http://www.w3.org/2000/svg" xmlns:xlink="http://www.w3.org/1999/xlink" viewBox="0 0 64 64"><defs><style>.cls-1{fill:url(#linear-gradient);}</style><linearGradient id="linear-gradient" x1="2" y1="32" x2="62" y2="32" gradientUnits="userSpaceOnUse"><stop offset="0" stop-color="#17a6d7"/><stop offset="1" stop-color="#9d31fe"/></linearGradient></defs><g id="Layer_83" data-name="Layer 83"><path class="cls-1" d="M60,5.08H42.49a2,2,0,0,0-2,2,8.49,8.49,0,1,1-17,0,2,2,0,0,0-2-2H4a2,2,0,0,0-2,2v16.1a2,2,0,0,0,2,2h6V56.92a2,2,0,0,0,2,2H52a2,2,0,0,0,2-2V25.18h6a2,2,0,0,0,2-2V7.08A2,2,0,0,0,60,5.08Zm-2,16.1H52a2,2,0,0,0-2,2V54.92H14V23.18a2,2,0,0,0-2-2H6V9.08H19.69C22.24,23,41.77,23,44.31,9.08H58Z"/></g></svg>